<?xml version="1.0" standalone="no"?>
<!DOCTYPE svg PUBLIC "-//W3C//DTD SVG 20010904//EN"
 "http://www.w3.org/TR/2001/REC-SVG-20010904/DTD/svg10.dtd">
<svg version="1.0" xmlns="http://www.w3.org/2000/svg"
 width="964.000000pt" height="1280.000000pt" viewBox="0 0 964.000000 1280.000000"
 preserveAspectRatio="xMidYMid meet">
<g transform="translate(0.000000,1280.000000) scale(0.100000,-0.100000)"
fill="#000000" stroke="none">
<path d="M4955 12716 c-246 -256 -301 -697 -145 -1144 55 -156 54 -152 44
-152 -5 0 -33 37 -63 83 -367 557 -817 891 -1386 1027 -139 33 -475 80 -475
66 0 -2 33 -17 73 -32 268 -101 430 -217 817 -585 257 -243 372 -348 543 -493
70 -60 126 -111 123 -113 -3 -3 -42 18 -87 46 -409 260 -863 423 -1358 488
-155 20 -542 22 -686 4 -537 -67 -1004 -265 -1430 -606 -104 -83 -392 -362
-383 -371 3 -2 40 16 83 41 505 299 1055 446 1668 445 408 -1 879 -60 1687
-214 319 -61 385 -79 250 -71 -367 22 -593 15 -867 -25 -1004 -148 -2052 -675
-2912 -1463 -132 -121 -371 -368 -371 -383 0 -3 12 2 28 13 540 364 958 603
1437 821 800 363 1684 605 2455 672 69 6 145 12 170 15 25 3 58 1 75 -3 26 -7
18 -11 -70 -31 -384 -89 -674 -300 -925 -674 -284 -424 -465 -1001 -546 -1742
-25 -230 -30 -835 -10 -1090 17 -209 43 -439 53 -465 3 -8 18 84 34 205 139
1077 487 1982 1063 2765 142 194 372 460 397 460 26 0 42 -43 35 -92 -16 -110
74 -240 199 -288 148 -56 308 -30 416 67 28 26 43 33 51 25 15 -15 515 -1558
736 -2277 743 -2406 1035 -4004 1132 -6190 14 -326 30 -961 30 -1234 l0 -223
43 5 c23 3 224 12 447 21 223 9 474 18 558 22 l152 6 0 202 c0 236 -16 811
-30 1116 -79 1653 -307 3025 -746 4488 -305 1016 -739 2153 -1523 3991 -83
195 -151 355 -151 357 0 3 24 15 54 28 65 29 131 86 157 137 10 21 23 40 28
43 5 3 46 -24 92 -61 522 -421 1003 -1217 1350 -2233 233 -680 423 -1567 475
-2213 4 -49 10 -85 14 -80 11 11 37 521 51 958 21 677 -18 1360 -106 1882
-197 1162 -671 1871 -1410 2106 -147 47 -278 72 -490 93 -63 6 -67 8 -40 16
41 13 453 2 650 -17 850 -82 1515 -328 2303 -853 168 -112 360 -250 622 -447
96 -72 182 -135 190 -140 50 -30 -379 424 -605 640 -819 785 -1502 1208 -2140
1326 -140 26 -371 35 -490 20 -127 -16 -280 -56 -394 -102 -54 -21 -102 -39
-106 -39 -40 0 170 122 345 200 362 162 720 230 1140 217 280 -9 455 -34 947
-137 156 -33 291 -60 301 -59 21 1 -27 22 -243 109 -487 195 -947 321 -1360
371 -164 20 -488 15 -625 -9 -264 -48 -446 -129 -615 -277 -52 -45 -81 -78
-167 -189 -37 -48 -25 -1 33 125 162 355 257 510 392 643 101 100 98 103 -46
41 -374 -162 -634 -450 -701 -779 -9 -44 -18 -82 -21 -84 -5 -6 -11 20 -31
142 -9 54 -44 205 -79 335 -95 355 -100 383 -99 556 1 120 5 163 21 218 11 37
18 67 15 67 -3 0 -24 -20 -47 -44z"/>
</g>
</svg>
